<?xml version="1.0" standalone="no"?>
<!DOCTYPE svg PUBLIC "-//W3C//DTD SVG 20010904//EN"
 "http://www.w3.org/TR/2001/REC-SVG-20010904/DTD/svg10.dtd">
<svg version="1.0" xmlns="http://www.w3.org/2000/svg"
 width="2500.000000pt" height="2500.000000pt" viewBox="0 0 2500.000000 2500.000000"
 preserveAspectRatio="xMidYMid meet">
<metadata>
Created by potrace 1.11, written by Peter Selinger 2001-2013
</metadata>
<g transform="translate(0.000000,2500.000000) scale(0.100000,-0.100000)"
fill="#000000" stroke="none">
<path d="M17630 21048 c-25 -5 -414 -86 -865 -179 -451 -93 -1134 -234 -1518
-313 -384 -79 -701 -147 -704 -150 -6 -6 1 -42 92 -481 31 -148 76 -367 100
-485 24 -118 105 -510 179 -870 74 -360 198 -961 275 -1335 77 -374 226 -1096
331 -1605 105 -509 240 -1163 300 -1455 431 -2092 550 -2669 553 -2672 4 -3
225 42 1877 383 360 74 796 164 969 200 173 35 316 66 317 67 2 1 -28 153 -66
337 -325 1573 -418 2027 -625 3030 -130 630 -254 1231 -275 1335 -22 105 -107
519 -190 920 -83 402 -220 1068 -305 1480 -351 1708 -371 1800 -386 1802 -8 0
-34 -3 -59 -9z"/>
<path d="M12395 19970 c-154 -33 -334 -70 -400 -84 -66 -14 -363 -75 -660
-136 -1210 -249 -1799 -371 -1801 -373 0 -1 39 -193 87 -427 49 -234 106 -513
128 -620 22 -107 66 -316 96 -465 101 -487 174 -839 325 -1575 82 -399 174
-846 205 -995 31 -148 108 -522 171 -830 63 -308 128 -623 144 -700 16 -77 83
-403 150 -725 66 -322 189 -913 271 -1315 83 -401 175 -846 204 -988 29 -142
55 -261 58 -263 3 -3 106 15 229 41 122 25 777 160 1453 300 1538 317 1478
305 1480 308 1 1 -290 1420 -484 2357 -17 80 -93 451 -170 825 -77 374 -165
802 -196 950 -50 244 -222 1078 -311 1510 -19 94 -105 508 -190 920 -147 711
-328 1589 -429 2085 -54 265 -53 260 -68 259 -7 0 -138 -27 -292 -59z"/>
<path d="M7615 18984 c-33 -7 -420 -87 -860 -178 -440 -91 -1074 -222 -1410
-291 -335 -69 -655 -135 -710 -147 -55 -11 -101 -21 -103 -22 -1 -2 11 -68 28
-147 16 -79 102 -495 190 -924 88 -429 226 -1095 305 -1480 79 -385 289 -1400
465 -2255 176 -855 399 -1935 495 -2400 95 -465 213 -1037 262 -1272 56 -273
92 -428 100 -428 9 0 1093 222 1608 330 156 32 991 204 1325 273 153 31 216
48 218 58 2 13 -30 176 -183 914 -31 149 -123 596 -205 995 -82 399 -219 1065
-305 1480 -276 1339 -482 2338 -635 3080 -554 2691 -499 2430 -514 2429 -6 -1
-38 -8 -71 -15z"/>
<path d="M19625 11295 c-60 -13 -472 -99 -915 -190 -443 -91 -935 -193 -1095
-226 -159 -33 -540 -111 -845 -174 -626 -129 -941 -194 -1575 -325 -242 -50
-766 -158 -1165 -240 -399 -82 -844 -174 -990 -204 -365 -75 -1817 -375 -2430
-501 -278 -57 -856 -176 -1285 -265 -680 -140 -2058 -424 -2600 -535 -99 -21
-181 -38 -183 -40 -1 -1 50 -254 113 -561 64 -307 121 -583 127 -611 6 -29 15
-53 21 -53 9 0 339 67 1152 235 929 192 1753 362 4025 830 465 96 1491 307
2280 470 789 163 1761 363 2160 445 399 82 844 174 990 204 249 51 1026 212
1315 271 1039 214 1278 265 1283 270 3 3 -50 279 -119 613 -95 466 -128 607
-139 608 -8 1 -64 -8 -125 -21z"/>
<path d="M19385 9099 c-368 -76 -778 -161 -910 -188 -132 -28 -393 -82 -580
-120 -313 -65 -1906 -393 -2575 -531 -617 -127 -1639 -338 -2310 -476 -723
-149 -869 -179 -1715 -354 -269 -55 -818 -169 -1220 -251 -401 -83 -847 -175
-990 -204 -143 -30 -620 -128 -1060 -219 -944 -194 -935 -193 -941 -198 -2 -3
33 -47 78 -99 359 -414 806 -851 1203 -1174 213 -174 236 -192 400 -311 1041
-756 2137 -1226 3300 -1414 315 -51 560 -71 960 -77 380 -6 542 2 890 43 255
30 668 108 895 170 52 14 118 31 145 39 464 127 1115 402 1513 638 31 19 91
54 132 78 95 56 410 267 515 345 553 413 1030 880 1446 1416 180 233 224 293
383 533 405 610 761 1336 1024 2085 36 101 132 398 132 407 0 9 -99 -10 -715
-138z"/>
</g>
</svg>
